<mxfile host="app.diagrams.net" modified="2021-07-19T14:05:20.101Z" agent="5.0 (Macintosh; Intel Mac OS X 10_15_7) AppleWebKit/537.36 (KHTML, like Gecko) Chrome/91.0.4472.114 Safari/537.36" etag="BwFfF-zwC2Wx3RcwDSs7" version="14.7.6" type="github">
  <diagram id="0E_j3MSa-0TkXnIP1Hir" name="Page-1">
    <mxGraphModel dx="1940" dy="722" grid="1" gridSize="10" guides="1" tooltips="1" connect="1" arrows="1" fold="1" page="1" pageScale="1" pageWidth="827" pageHeight="1169" math="0" shadow="0">
      <root>
        <mxCell id="0" />
        <mxCell id="1" parent="0" />
        <mxCell id="LJlpOCn2nI5gCubznE0P-73" value="" style="rounded=1;whiteSpace=wrap;html=1;" vertex="1" parent="1">
          <mxGeometry x="160" y="1460" width="150" height="250" as="geometry" />
        </mxCell>
        <mxCell id="LJlpOCn2nI5gCubznE0P-72" value="&lt;div style=&quot;text-align: justify&quot;&gt;&lt;br&gt;&lt;/div&gt;" style="rounded=1;whiteSpace=wrap;html=1;" vertex="1" parent="1">
          <mxGeometry x="390" y="1460" width="270" height="340" as="geometry" />
        </mxCell>
        <mxCell id="LJlpOCn2nI5gCubznE0P-1" value="Security Group" style="rounded=0;whiteSpace=wrap;html=1;fillColor=#dae8fc;strokeColor=#6c8ebf;" vertex="1" parent="1">
          <mxGeometry x="210" y="340" width="470" height="60" as="geometry" />
        </mxCell>
        <mxCell id="LJlpOCn2nI5gCubznE0P-2" value="EBS" style="rounded=0;whiteSpace=wrap;html=1;" vertex="1" parent="1">
          <mxGeometry x="210" y="400" width="470" height="60" as="geometry" />
        </mxCell>
        <mxCell id="LJlpOCn2nI5gCubznE0P-6" style="edgeStyle=orthogonalEdgeStyle;rounded=0;orthogonalLoop=1;jettySize=auto;html=1;" edge="1" parent="1" source="LJlpOCn2nI5gCubznE0P-3" target="LJlpOCn2nI5gCubznE0P-1">
          <mxGeometry relative="1" as="geometry">
            <Array as="points">
              <mxPoint x="270" y="320" />
              <mxPoint x="270" y="320" />
            </Array>
          </mxGeometry>
        </mxCell>
        <mxCell id="LJlpOCn2nI5gCubznE0P-3" value="EC2&lt;br&gt;us-east-1a" style="rounded=0;whiteSpace=wrap;html=1;fillColor=#fff2cc;strokeColor=#d6b656;" vertex="1" parent="1">
          <mxGeometry x="210" y="210" width="120" height="60" as="geometry" />
        </mxCell>
        <mxCell id="LJlpOCn2nI5gCubznE0P-9" style="edgeStyle=orthogonalEdgeStyle;rounded=0;orthogonalLoop=1;jettySize=auto;html=1;entryX=0.5;entryY=0;entryDx=0;entryDy=0;" edge="1" parent="1" source="LJlpOCn2nI5gCubznE0P-4" target="LJlpOCn2nI5gCubznE0P-1">
          <mxGeometry relative="1" as="geometry">
            <Array as="points">
              <mxPoint x="440" y="340" />
            </Array>
          </mxGeometry>
        </mxCell>
        <mxCell id="LJlpOCn2nI5gCubznE0P-4" value="EC2&lt;br&gt;us-east-1b" style="rounded=0;whiteSpace=wrap;html=1;fillColor=#fff2cc;strokeColor=#d6b656;" vertex="1" parent="1">
          <mxGeometry x="380" y="210" width="120" height="60" as="geometry" />
        </mxCell>
        <mxCell id="LJlpOCn2nI5gCubznE0P-10" style="edgeStyle=orthogonalEdgeStyle;rounded=0;orthogonalLoop=1;jettySize=auto;html=1;entryX=0.872;entryY=0;entryDx=0;entryDy=0;entryPerimeter=0;" edge="1" parent="1" source="LJlpOCn2nI5gCubznE0P-5" target="LJlpOCn2nI5gCubznE0P-1">
          <mxGeometry relative="1" as="geometry" />
        </mxCell>
        <mxCell id="LJlpOCn2nI5gCubznE0P-5" value="EC2&lt;br&gt;us-east-1c" style="rounded=0;whiteSpace=wrap;html=1;fillColor=#fff2cc;strokeColor=#d6b656;" vertex="1" parent="1">
          <mxGeometry x="560" y="210" width="120" height="60" as="geometry" />
        </mxCell>
        <mxCell id="LJlpOCn2nI5gCubznE0P-11" value="External Application Load Balancer" style="rounded=0;whiteSpace=wrap;html=1;fillColor=#e1d5e7;strokeColor=#9673a6;" vertex="1" parent="1">
          <mxGeometry x="280" y="670" width="120" height="260" as="geometry" />
        </mxCell>
        <mxCell id="LJlpOCn2nI5gCubznE0P-12" value="&lt;font style=&quot;font-size: 20px&quot;&gt;www&lt;/font&gt;" style="text;html=1;align=center;verticalAlign=middle;resizable=0;points=[];autosize=1;strokeColor=none;" vertex="1" parent="1">
          <mxGeometry x="80" y="790" width="60" height="20" as="geometry" />
        </mxCell>
        <mxCell id="LJlpOCn2nI5gCubznE0P-13" value="" style="endArrow=classic;startArrow=classic;html=1;exitX=1.033;exitY=0.65;exitDx=0;exitDy=0;exitPerimeter=0;" edge="1" parent="1" source="LJlpOCn2nI5gCubznE0P-12">
          <mxGeometry width="50" height="50" relative="1" as="geometry">
            <mxPoint x="130" y="729.5" as="sourcePoint" />
            <mxPoint x="276" y="803" as="targetPoint" />
            <Array as="points" />
          </mxGeometry>
        </mxCell>
        <mxCell id="LJlpOCn2nI5gCubznE0P-29" value="&lt;span style=&quot;font-size: 12px ; background-color: rgb(248 , 249 , 250)&quot;&gt;route /user&lt;/span&gt;" style="edgeLabel;html=1;align=center;verticalAlign=middle;resizable=0;points=[];" vertex="1" connectable="0" parent="LJlpOCn2nI5gCubznE0P-13">
          <mxGeometry x="0.2737" relative="1" as="geometry">
            <mxPoint as="offset" />
          </mxGeometry>
        </mxCell>
        <mxCell id="LJlpOCn2nI5gCubznE0P-18" value="?platform = Mobile" style="endArrow=classic;startArrow=classic;html=1;entryX=-0.033;entryY=0.223;entryDx=0;entryDy=0;entryPerimeter=0;" edge="1" parent="1">
          <mxGeometry width="50" height="50" relative="1" as="geometry">
            <mxPoint x="400" y="730.76" as="sourcePoint" />
            <mxPoint x="546.04" y="729.24" as="targetPoint" />
            <Array as="points" />
          </mxGeometry>
        </mxCell>
        <mxCell id="LJlpOCn2nI5gCubznE0P-19" value="?platform = Desktop" style="endArrow=classic;startArrow=classic;html=1;entryX=-0.033;entryY=0.223;entryDx=0;entryDy=0;entryPerimeter=0;" edge="1" parent="1">
          <mxGeometry width="50" height="50" relative="1" as="geometry">
            <mxPoint x="400" y="850" as="sourcePoint" />
            <mxPoint x="546.04" y="848.48" as="targetPoint" />
            <Array as="points" />
          </mxGeometry>
        </mxCell>
        <mxCell id="LJlpOCn2nI5gCubznE0P-20" value="" style="shape=process;whiteSpace=wrap;html=1;backgroundOutline=1;fillColor=#d5e8d4;strokeColor=#82b366;" vertex="1" parent="1">
          <mxGeometry x="550" y="680" width="220" height="100" as="geometry" />
        </mxCell>
        <mxCell id="LJlpOCn2nI5gCubznE0P-21" value="" style="shape=process;whiteSpace=wrap;html=1;backgroundOutline=1;fillColor=#d5e8d4;strokeColor=#82b366;" vertex="1" parent="1">
          <mxGeometry x="550" y="800" width="220" height="100" as="geometry" />
        </mxCell>
        <mxCell id="LJlpOCn2nI5gCubznE0P-23" value="&lt;meta charset=&quot;utf-8&quot;&gt;&lt;span style=&quot;color: rgb(0, 0, 0); font-family: helvetica; font-size: 12px; font-style: normal; font-weight: 400; letter-spacing: normal; text-align: center; text-indent: 0px; text-transform: none; word-spacing: 0px; background-color: rgb(248, 249, 250); display: inline; float: none;&quot;&gt;Target groups for /users application&lt;/span&gt;" style="text;whiteSpace=wrap;html=1;" vertex="1" parent="1">
          <mxGeometry x="580" y="705" width="80" height="30" as="geometry" />
        </mxCell>
        <mxCell id="LJlpOCn2nI5gCubznE0P-24" value="&lt;span style=&quot;color: rgb(0 , 0 , 0) ; font-family: &amp;#34;helvetica&amp;#34; ; font-size: 12px ; font-style: normal ; font-weight: 400 ; letter-spacing: normal ; text-align: center ; text-indent: 0px ; text-transform: none ; word-spacing: 0px ; background-color: rgb(248 , 249 , 250) ; display: inline ; float: none&quot;&gt;Target groups 2&lt;br&gt;on-premises&lt;br&gt;Private IP Routing&lt;br&gt;&lt;/span&gt;" style="text;whiteSpace=wrap;html=1;fillColor=#d5e8d4;strokeColor=#82b366;" vertex="1" parent="1">
          <mxGeometry x="580" y="835" width="110" height="30" as="geometry" />
        </mxCell>
        <mxCell id="LJlpOCn2nI5gCubznE0P-25" value="EC2" style="rounded=0;whiteSpace=wrap;html=1;fillColor=#fff2cc;strokeColor=#d6b656;" vertex="1" parent="1">
          <mxGeometry x="695" y="740" width="30" height="30" as="geometry" />
        </mxCell>
        <mxCell id="LJlpOCn2nI5gCubznE0P-26" value="EC2" style="rounded=0;whiteSpace=wrap;html=1;fillColor=#fff2cc;strokeColor=#d6b656;" vertex="1" parent="1">
          <mxGeometry x="695" y="700" width="30" height="30" as="geometry" />
        </mxCell>
        <mxCell id="LJlpOCn2nI5gCubznE0P-27" value="Server" style="rounded=0;whiteSpace=wrap;html=1;fillColor=#fff2cc;strokeColor=#d6b656;" vertex="1" parent="1">
          <mxGeometry x="695" y="860" width="45" height="30" as="geometry" />
        </mxCell>
        <mxCell id="LJlpOCn2nI5gCubznE0P-28" value="Server" style="rounded=0;whiteSpace=wrap;html=1;fillColor=#fff2cc;strokeColor=#d6b656;" vertex="1" parent="1">
          <mxGeometry x="695" y="820" width="45" height="30" as="geometry" />
        </mxCell>
        <mxCell id="LJlpOCn2nI5gCubznE0P-30" value="External Network Load Balancer" style="rounded=0;whiteSpace=wrap;html=1;fillColor=#e1d5e7;strokeColor=#9673a6;" vertex="1" parent="1">
          <mxGeometry x="280" y="990" width="120" height="260" as="geometry" />
        </mxCell>
        <mxCell id="LJlpOCn2nI5gCubznE0P-31" value="&lt;font style=&quot;font-size: 20px&quot;&gt;www&lt;/font&gt;" style="text;html=1;align=center;verticalAlign=middle;resizable=0;points=[];autosize=1;strokeColor=none;" vertex="1" parent="1">
          <mxGeometry x="80" y="1155" width="60" height="20" as="geometry" />
        </mxCell>
        <mxCell id="LJlpOCn2nI5gCubznE0P-32" value="" style="endArrow=classic;startArrow=classic;html=1;" edge="1" parent="1">
          <mxGeometry width="50" height="50" relative="1" as="geometry">
            <mxPoint x="140" y="1170" as="sourcePoint" />
            <mxPoint x="276" y="1170" as="targetPoint" />
            <Array as="points" />
          </mxGeometry>
        </mxCell>
        <mxCell id="LJlpOCn2nI5gCubznE0P-54" value="TCP + Rules" style="edgeLabel;html=1;align=center;verticalAlign=middle;resizable=0;points=[];" vertex="1" connectable="0" parent="LJlpOCn2nI5gCubznE0P-32">
          <mxGeometry x="-0.3282" relative="1" as="geometry">
            <mxPoint x="23" y="-3" as="offset" />
          </mxGeometry>
        </mxCell>
        <mxCell id="LJlpOCn2nI5gCubznE0P-34" value="TCP" style="endArrow=classic;startArrow=classic;html=1;entryX=-0.033;entryY=0.223;entryDx=0;entryDy=0;entryPerimeter=0;" edge="1" parent="1">
          <mxGeometry width="50" height="50" relative="1" as="geometry">
            <mxPoint x="400" y="1050.76" as="sourcePoint" />
            <mxPoint x="546.04" y="1049.24" as="targetPoint" />
            <Array as="points" />
          </mxGeometry>
        </mxCell>
        <mxCell id="LJlpOCn2nI5gCubznE0P-35" value="HTTP" style="endArrow=classic;startArrow=classic;html=1;entryX=-0.033;entryY=0.223;entryDx=0;entryDy=0;entryPerimeter=0;" edge="1" parent="1">
          <mxGeometry width="50" height="50" relative="1" as="geometry">
            <mxPoint x="400" y="1170" as="sourcePoint" />
            <mxPoint x="546.04" y="1168.48" as="targetPoint" />
            <Array as="points" />
          </mxGeometry>
        </mxCell>
        <mxCell id="LJlpOCn2nI5gCubznE0P-36" value="" style="shape=process;whiteSpace=wrap;html=1;backgroundOutline=1;fillColor=#d5e8d4;strokeColor=#82b366;" vertex="1" parent="1">
          <mxGeometry x="550" y="1000" width="220" height="100" as="geometry" />
        </mxCell>
        <mxCell id="LJlpOCn2nI5gCubznE0P-37" value="" style="shape=process;whiteSpace=wrap;html=1;backgroundOutline=1;fillColor=#d5e8d4;strokeColor=#82b366;" vertex="1" parent="1">
          <mxGeometry x="550" y="1120" width="220" height="100" as="geometry" />
        </mxCell>
        <mxCell id="LJlpOCn2nI5gCubznE0P-38" value="&lt;span style=&quot;color: rgb(0 , 0 , 0) ; font-family: &amp;#34;helvetica&amp;#34; ; font-size: 12px ; font-style: normal ; font-weight: 400 ; letter-spacing: normal ; text-align: center ; text-indent: 0px ; text-transform: none ; word-spacing: 0px ; background-color: rgb(248 , 249 , 250) ; display: inline ; float: none&quot;&gt;Target groups for &lt;/span&gt;&lt;span style=&quot;color: rgb(0 , 0 , 0) ; font-family: &amp;#34;helvetica&amp;#34; ; font-size: 12px ; font-style: normal ; letter-spacing: normal ; text-align: center ; text-indent: 0px ; text-transform: none ; word-spacing: 0px ; background-color: rgb(248 , 249 , 250) ; display: inline ; float: none&quot;&gt;&lt;b&gt;Users&lt;/b&gt;&lt;/span&gt;&lt;span style=&quot;color: rgb(0 , 0 , 0) ; font-family: &amp;#34;helvetica&amp;#34; ; font-size: 12px ; font-style: normal ; font-weight: 400 ; letter-spacing: normal ; text-align: center ; text-indent: 0px ; text-transform: none ; word-spacing: 0px ; background-color: rgb(248 , 249 , 250) ; display: inline ; float: none&quot;&gt; application&lt;/span&gt;" style="text;whiteSpace=wrap;html=1;" vertex="1" parent="1">
          <mxGeometry x="580" y="1025" width="80" height="30" as="geometry" />
        </mxCell>
        <mxCell id="LJlpOCn2nI5gCubznE0P-39" value="&lt;span style=&quot;color: rgb(0 , 0 , 0) ; font-family: &amp;#34;helvetica&amp;#34; ; font-size: 12px ; font-style: normal ; font-weight: 400 ; letter-spacing: normal ; text-align: center ; text-indent: 0px ; text-transform: none ; word-spacing: 0px ; background-color: rgb(248 , 249 , 250) ; display: inline ; float: none&quot;&gt;Target groups for &lt;/span&gt;&lt;span style=&quot;color: rgb(0 , 0 , 0) ; font-family: &amp;#34;helvetica&amp;#34; ; font-size: 12px ; font-style: normal ; letter-spacing: normal ; text-align: center ; text-indent: 0px ; text-transform: none ; word-spacing: 0px ; background-color: rgb(248 , 249 , 250) ; display: inline ; float: none&quot;&gt;&lt;b&gt;Search&lt;/b&gt;&amp;nbsp;application&lt;br&gt;&lt;/span&gt;" style="text;whiteSpace=wrap;html=1;fillColor=#d5e8d4;strokeColor=#82b366;" vertex="1" parent="1">
          <mxGeometry x="580" y="1155" width="110" height="30" as="geometry" />
        </mxCell>
        <mxCell id="LJlpOCn2nI5gCubznE0P-40" value="EC2" style="rounded=0;whiteSpace=wrap;html=1;fillColor=#fff2cc;strokeColor=#d6b656;" vertex="1" parent="1">
          <mxGeometry x="695" y="1060" width="30" height="30" as="geometry" />
        </mxCell>
        <mxCell id="LJlpOCn2nI5gCubznE0P-41" value="EC2" style="rounded=0;whiteSpace=wrap;html=1;fillColor=#fff2cc;strokeColor=#d6b656;" vertex="1" parent="1">
          <mxGeometry x="695" y="1020" width="30" height="30" as="geometry" />
        </mxCell>
        <mxCell id="LJlpOCn2nI5gCubznE0P-42" value="Server" style="rounded=0;whiteSpace=wrap;html=1;fillColor=#fff2cc;strokeColor=#d6b656;" vertex="1" parent="1">
          <mxGeometry x="695" y="1180" width="45" height="30" as="geometry" />
        </mxCell>
        <mxCell id="LJlpOCn2nI5gCubznE0P-43" value="Server" style="rounded=0;whiteSpace=wrap;html=1;fillColor=#fff2cc;strokeColor=#d6b656;" vertex="1" parent="1">
          <mxGeometry x="695" y="1140" width="45" height="30" as="geometry" />
        </mxCell>
        <mxCell id="LJlpOCn2nI5gCubznE0P-44" value="&lt;span style=&quot;background-color: rgb(255 , 153 , 153)&quot;&gt;&lt;font style=&quot;font-size: 30px&quot;&gt;ALB&lt;/font&gt;&lt;/span&gt;" style="text;html=1;align=center;verticalAlign=middle;resizable=0;points=[];autosize=1;strokeColor=none;" vertex="1" parent="1">
          <mxGeometry x="95" y="635" width="70" height="30" as="geometry" />
        </mxCell>
        <mxCell id="LJlpOCn2nI5gCubznE0P-45" value="&lt;span style=&quot;background-color: rgb(255 , 153 , 153)&quot;&gt;&lt;font style=&quot;font-size: 30px&quot;&gt;Network Load Balancer&lt;/font&gt;&lt;/span&gt;" style="text;html=1;align=center;verticalAlign=middle;resizable=0;points=[];autosize=1;strokeColor=none;" vertex="1" parent="1">
          <mxGeometry x="-35" y="930" width="330" height="30" as="geometry" />
        </mxCell>
        <mxCell id="LJlpOCn2nI5gCubznE0P-47" value="&lt;font style=&quot;font-size: 20px&quot;&gt;www&lt;/font&gt;" style="text;html=1;align=center;verticalAlign=middle;resizable=0;points=[];autosize=1;strokeColor=none;" vertex="1" parent="1">
          <mxGeometry x="80" y="1035" width="60" height="20" as="geometry" />
        </mxCell>
        <mxCell id="LJlpOCn2nI5gCubznE0P-48" value="" style="endArrow=classic;startArrow=classic;html=1;exitX=0.983;exitY=0.65;exitDx=0;exitDy=0;exitPerimeter=0;" edge="1" parent="1" source="LJlpOCn2nI5gCubznE0P-47">
          <mxGeometry width="50" height="50" relative="1" as="geometry">
            <mxPoint x="145.98000000000002" y="1049" as="sourcePoint" />
            <mxPoint x="280" y="1049" as="targetPoint" />
            <Array as="points" />
          </mxGeometry>
        </mxCell>
        <mxCell id="LJlpOCn2nI5gCubznE0P-53" value="&lt;span style=&quot;font-size: 12px ; background-color: rgb(248 , 249 , 250)&quot;&gt;TCP + Rules&lt;/span&gt;" style="edgeLabel;html=1;align=center;verticalAlign=middle;resizable=0;points=[];" vertex="1" connectable="0" parent="LJlpOCn2nI5gCubznE0P-48">
          <mxGeometry x="-0.1939" relative="1" as="geometry">
            <mxPoint x="14" y="-3" as="offset" />
          </mxGeometry>
        </mxCell>
        <mxCell id="LJlpOCn2nI5gCubznE0P-55" value="&lt;span style=&quot;background-color: rgb(255 , 153 , 153)&quot;&gt;&lt;font style=&quot;font-size: 30px&quot;&gt;Cross Zone Load Balancer&lt;/font&gt;&lt;/span&gt;" style="text;html=1;align=center;verticalAlign=middle;resizable=0;points=[];autosize=1;strokeColor=none;" vertex="1" parent="1">
          <mxGeometry x="-40" y="1280" width="370" height="30" as="geometry" />
        </mxCell>
        <mxCell id="LJlpOCn2nI5gCubznE0P-83" style="edgeStyle=orthogonalEdgeStyle;rounded=0;orthogonalLoop=1;jettySize=auto;html=1;entryX=0.427;entryY=-0.016;entryDx=0;entryDy=0;entryPerimeter=0;" edge="1" parent="1" source="LJlpOCn2nI5gCubznE0P-56" target="LJlpOCn2nI5gCubznE0P-73">
          <mxGeometry relative="1" as="geometry" />
        </mxCell>
        <mxCell id="LJlpOCn2nI5gCubznE0P-86" value="50" style="edgeLabel;html=1;align=center;verticalAlign=middle;resizable=0;points=[];" vertex="1" connectable="0" parent="LJlpOCn2nI5gCubznE0P-83">
          <mxGeometry x="0.1819" relative="1" as="geometry">
            <mxPoint as="offset" />
          </mxGeometry>
        </mxCell>
        <mxCell id="LJlpOCn2nI5gCubznE0P-84" style="edgeStyle=orthogonalEdgeStyle;rounded=0;orthogonalLoop=1;jettySize=auto;html=1;entryX=0.555;entryY=-0.006;entryDx=0;entryDy=0;entryPerimeter=0;" edge="1" parent="1" source="LJlpOCn2nI5gCubznE0P-56" target="LJlpOCn2nI5gCubznE0P-72">
          <mxGeometry relative="1" as="geometry">
            <mxPoint x="540" y="1450" as="targetPoint" />
            <Array as="points">
              <mxPoint x="540" y="1375" />
            </Array>
          </mxGeometry>
        </mxCell>
        <mxCell id="LJlpOCn2nI5gCubznE0P-85" value="50" style="edgeLabel;html=1;align=center;verticalAlign=middle;resizable=0;points=[];" vertex="1" connectable="0" parent="LJlpOCn2nI5gCubznE0P-84">
          <mxGeometry x="0.1144" y="-1" relative="1" as="geometry">
            <mxPoint as="offset" />
          </mxGeometry>
        </mxCell>
        <mxCell id="LJlpOCn2nI5gCubznE0P-56" value="" style="aspect=fixed;pointerEvents=1;shadow=0;dashed=0;html=1;strokeColor=none;labelPosition=center;verticalLabelPosition=bottom;verticalAlign=top;align=center;fillColor=#00188D;shape=mxgraph.azure.computer" vertex="1" parent="1">
          <mxGeometry x="336.22" y="1340" width="77.78" height="70" as="geometry" />
        </mxCell>
        <mxCell id="LJlpOCn2nI5gCubznE0P-57" value="" style="outlineConnect=0;dashed=0;verticalLabelPosition=bottom;verticalAlign=top;align=center;html=1;shape=mxgraph.aws3.application_load_balancer;fillColor=#F58536;gradientColor=none;" vertex="1" parent="1">
          <mxGeometry x="200" y="1480" width="69" height="72" as="geometry" />
        </mxCell>
        <mxCell id="LJlpOCn2nI5gCubznE0P-59" value="" style="outlineConnect=0;dashed=0;verticalLabelPosition=bottom;verticalAlign=top;align=center;html=1;shape=mxgraph.aws3.application_load_balancer;fillColor=#F58536;gradientColor=none;" vertex="1" parent="1">
          <mxGeometry x="491" y="1480" width="69" height="72" as="geometry" />
        </mxCell>
        <mxCell id="LJlpOCn2nI5gCubznE0P-66" value="" style="outlineConnect=0;dashed=0;verticalLabelPosition=bottom;verticalAlign=top;align=center;html=1;shape=mxgraph.aws3.ec2;fillColor=#F58534;gradientColor=none;" vertex="1" parent="1">
          <mxGeometry x="244.5" y="1607" width="45" height="63" as="geometry" />
        </mxCell>
        <mxCell id="LJlpOCn2nI5gCubznE0P-71" value="" style="outlineConnect=0;dashed=0;verticalLabelPosition=bottom;verticalAlign=top;align=center;html=1;shape=mxgraph.aws3.ec2;fillColor=#F58534;gradientColor=none;" vertex="1" parent="1">
          <mxGeometry x="179.5" y="1607" width="45" height="63" as="geometry" />
        </mxCell>
        <mxCell id="LJlpOCn2nI5gCubznE0P-74" value="" style="group" vertex="1" connectable="0" parent="1">
          <mxGeometry x="414" y="1607" width="219" height="63" as="geometry" />
        </mxCell>
        <mxCell id="LJlpOCn2nI5gCubznE0P-67" value="" style="outlineConnect=0;dashed=0;verticalLabelPosition=bottom;verticalAlign=top;align=center;html=1;shape=mxgraph.aws3.ec2;fillColor=#F58534;gradientColor=none;" vertex="1" parent="LJlpOCn2nI5gCubznE0P-74">
          <mxGeometry x="174" width="45" height="63" as="geometry" />
        </mxCell>
        <mxCell id="LJlpOCn2nI5gCubznE0P-68" value="" style="outlineConnect=0;dashed=0;verticalLabelPosition=bottom;verticalAlign=top;align=center;html=1;shape=mxgraph.aws3.ec2;fillColor=#F58534;gradientColor=none;" vertex="1" parent="LJlpOCn2nI5gCubznE0P-74">
          <mxGeometry x="114" width="45" height="63" as="geometry" />
        </mxCell>
        <mxCell id="LJlpOCn2nI5gCubznE0P-69" value="" style="outlineConnect=0;dashed=0;verticalLabelPosition=bottom;verticalAlign=top;align=center;html=1;shape=mxgraph.aws3.ec2;fillColor=#F58534;gradientColor=none;" vertex="1" parent="LJlpOCn2nI5gCubznE0P-74">
          <mxGeometry x="57" width="45" height="63" as="geometry" />
        </mxCell>
        <mxCell id="LJlpOCn2nI5gCubznE0P-70" value="" style="outlineConnect=0;dashed=0;verticalLabelPosition=bottom;verticalAlign=top;align=center;html=1;shape=mxgraph.aws3.ec2;fillColor=#F58534;gradientColor=none;" vertex="1" parent="LJlpOCn2nI5gCubznE0P-74">
          <mxGeometry width="45" height="63" as="geometry" />
        </mxCell>
        <mxCell id="LJlpOCn2nI5gCubznE0P-103" value="" style="endArrow=none;html=1;" edge="1" parent="LJlpOCn2nI5gCubznE0P-74">
          <mxGeometry width="50" height="50" relative="1" as="geometry">
            <mxPoint x="109.58000000000004" y="73" as="sourcePoint" />
            <mxPoint x="109.33000000000004" y="-17" as="targetPoint" />
          </mxGeometry>
        </mxCell>
        <mxCell id="LJlpOCn2nI5gCubznE0P-75" value="" style="group" vertex="1" connectable="0" parent="1">
          <mxGeometry x="414" y="1700" width="219" height="63" as="geometry" />
        </mxCell>
        <mxCell id="LJlpOCn2nI5gCubznE0P-76" value="" style="outlineConnect=0;dashed=0;verticalLabelPosition=bottom;verticalAlign=top;align=center;html=1;shape=mxgraph.aws3.ec2;fillColor=#F58534;gradientColor=none;" vertex="1" parent="LJlpOCn2nI5gCubznE0P-75">
          <mxGeometry x="174" width="45" height="63" as="geometry" />
        </mxCell>
        <mxCell id="LJlpOCn2nI5gCubznE0P-77" value="" style="outlineConnect=0;dashed=0;verticalLabelPosition=bottom;verticalAlign=top;align=center;html=1;shape=mxgraph.aws3.ec2;fillColor=#F58534;gradientColor=none;" vertex="1" parent="LJlpOCn2nI5gCubznE0P-75">
          <mxGeometry x="114" width="45" height="63" as="geometry" />
        </mxCell>
        <mxCell id="LJlpOCn2nI5gCubznE0P-78" value="" style="outlineConnect=0;dashed=0;verticalLabelPosition=bottom;verticalAlign=top;align=center;html=1;shape=mxgraph.aws3.ec2;fillColor=#F58534;gradientColor=none;" vertex="1" parent="LJlpOCn2nI5gCubznE0P-75">
          <mxGeometry x="57" width="45" height="63" as="geometry" />
        </mxCell>
        <mxCell id="LJlpOCn2nI5gCubznE0P-79" value="" style="outlineConnect=0;dashed=0;verticalLabelPosition=bottom;verticalAlign=top;align=center;html=1;shape=mxgraph.aws3.ec2;fillColor=#F58534;gradientColor=none;" vertex="1" parent="LJlpOCn2nI5gCubznE0P-75">
          <mxGeometry width="45" height="63" as="geometry" />
        </mxCell>
        <mxCell id="LJlpOCn2nI5gCubznE0P-81" value="Avaiability Zone 1" style="text;html=1;align=center;verticalAlign=middle;resizable=0;points=[];autosize=1;strokeColor=none;" vertex="1" parent="1">
          <mxGeometry x="180" y="1680" width="110" height="20" as="geometry" />
        </mxCell>
        <mxCell id="LJlpOCn2nI5gCubznE0P-82" value="Availability Zone 2" style="text;html=1;align=center;verticalAlign=middle;resizable=0;points=[];autosize=1;strokeColor=none;" vertex="1" parent="1">
          <mxGeometry x="468.5" y="1760" width="110" height="20" as="geometry" />
        </mxCell>
        <mxCell id="LJlpOCn2nI5gCubznE0P-92" value="" style="endArrow=none;html=1;" edge="1" parent="1">
          <mxGeometry width="50" height="50" relative="1" as="geometry">
            <mxPoint x="160" y="1590" as="sourcePoint" />
            <mxPoint x="660" y="1590" as="targetPoint" />
          </mxGeometry>
        </mxCell>
        <mxCell id="LJlpOCn2nI5gCubznE0P-95" value="" style="endArrow=none;html=1;" edge="1" parent="1">
          <mxGeometry width="50" height="50" relative="1" as="geometry">
            <mxPoint x="266.71" y="1590" as="sourcePoint" />
            <mxPoint x="267" y="1610" as="targetPoint" />
          </mxGeometry>
        </mxCell>
        <mxCell id="LJlpOCn2nI5gCubznE0P-119" value="10" style="edgeLabel;html=1;align=center;verticalAlign=middle;resizable=0;points=[];" vertex="1" connectable="0" parent="LJlpOCn2nI5gCubznE0P-95">
          <mxGeometry x="-0.069" y="-1" relative="1" as="geometry">
            <mxPoint as="offset" />
          </mxGeometry>
        </mxCell>
        <mxCell id="LJlpOCn2nI5gCubznE0P-96" value="" style="endArrow=none;html=1;" edge="1" parent="1" target="LJlpOCn2nI5gCubznE0P-71">
          <mxGeometry width="50" height="50" relative="1" as="geometry">
            <mxPoint x="200" y="1590" as="sourcePoint" />
            <mxPoint x="330" y="1710" as="targetPoint" />
          </mxGeometry>
        </mxCell>
        <mxCell id="LJlpOCn2nI5gCubznE0P-118" value="10" style="edgeLabel;html=1;align=center;verticalAlign=middle;resizable=0;points=[];" vertex="1" connectable="0" parent="LJlpOCn2nI5gCubznE0P-96">
          <mxGeometry x="-0.096" relative="1" as="geometry">
            <mxPoint as="offset" />
          </mxGeometry>
        </mxCell>
        <mxCell id="LJlpOCn2nI5gCubznE0P-97" value="" style="endArrow=none;html=1;exitX=0.5;exitY=0;exitDx=0;exitDy=0;exitPerimeter=0;" edge="1" parent="1" source="LJlpOCn2nI5gCubznE0P-70">
          <mxGeometry width="50" height="50" relative="1" as="geometry">
            <mxPoint x="276.71000000000026" y="1600" as="sourcePoint" />
            <mxPoint x="437" y="1590" as="targetPoint" />
          </mxGeometry>
        </mxCell>
        <mxCell id="LJlpOCn2nI5gCubznE0P-111" value="10" style="edgeLabel;html=1;align=center;verticalAlign=middle;resizable=0;points=[];" vertex="1" connectable="0" parent="LJlpOCn2nI5gCubznE0P-97">
          <mxGeometry x="-0.3652" y="3" relative="1" as="geometry">
            <mxPoint as="offset" />
          </mxGeometry>
        </mxCell>
        <mxCell id="LJlpOCn2nI5gCubznE0P-98" value="" style="endArrow=none;html=1;exitX=0.5;exitY=0;exitDx=0;exitDy=0;exitPerimeter=0;" edge="1" parent="1" source="LJlpOCn2nI5gCubznE0P-69">
          <mxGeometry width="50" height="50" relative="1" as="geometry">
            <mxPoint x="446.5" y="1617" as="sourcePoint" />
            <mxPoint x="494" y="1590" as="targetPoint" />
          </mxGeometry>
        </mxCell>
        <mxCell id="LJlpOCn2nI5gCubznE0P-110" value="10" style="edgeLabel;html=1;align=center;verticalAlign=middle;resizable=0;points=[];" vertex="1" connectable="0" parent="LJlpOCn2nI5gCubznE0P-98">
          <mxGeometry x="-0.2125" y="-2" relative="1" as="geometry">
            <mxPoint as="offset" />
          </mxGeometry>
        </mxCell>
        <mxCell id="LJlpOCn2nI5gCubznE0P-99" value="" style="endArrow=none;html=1;exitX=0.5;exitY=0;exitDx=0;exitDy=0;exitPerimeter=0;" edge="1" parent="1" source="LJlpOCn2nI5gCubznE0P-68">
          <mxGeometry width="50" height="50" relative="1" as="geometry">
            <mxPoint x="503.5" y="1617" as="sourcePoint" />
            <mxPoint x="551" y="1590" as="targetPoint" />
          </mxGeometry>
        </mxCell>
        <mxCell id="LJlpOCn2nI5gCubznE0P-112" value="10" style="edgeLabel;html=1;align=center;verticalAlign=middle;resizable=0;points=[];" vertex="1" connectable="0" parent="LJlpOCn2nI5gCubznE0P-99">
          <mxGeometry x="-0.0679" y="-3" relative="1" as="geometry">
            <mxPoint as="offset" />
          </mxGeometry>
        </mxCell>
        <mxCell id="LJlpOCn2nI5gCubznE0P-100" value="" style="endArrow=none;html=1;exitX=0.5;exitY=0;exitDx=0;exitDy=0;exitPerimeter=0;" edge="1" parent="1">
          <mxGeometry width="50" height="50" relative="1" as="geometry">
            <mxPoint x="610" y="1607" as="sourcePoint" />
            <mxPoint x="610.5" y="1590" as="targetPoint" />
          </mxGeometry>
        </mxCell>
        <mxCell id="LJlpOCn2nI5gCubznE0P-113" value="10" style="edgeLabel;html=1;align=center;verticalAlign=middle;resizable=0;points=[];" vertex="1" connectable="0" parent="LJlpOCn2nI5gCubznE0P-100">
          <mxGeometry x="0.0762" y="-5" relative="1" as="geometry">
            <mxPoint as="offset" />
          </mxGeometry>
        </mxCell>
        <mxCell id="LJlpOCn2nI5gCubznE0P-101" value="" style="endArrow=none;html=1;exitX=0.5;exitY=0;exitDx=0;exitDy=0;exitPerimeter=0;" edge="1" parent="1" source="LJlpOCn2nI5gCubznE0P-76">
          <mxGeometry width="50" height="50" relative="1" as="geometry">
            <mxPoint x="610" y="1697" as="sourcePoint" />
            <mxPoint x="610.5" y="1680" as="targetPoint" />
          </mxGeometry>
        </mxCell>
        <mxCell id="LJlpOCn2nI5gCubznE0P-117" value="10" style="edgeLabel;html=1;align=center;verticalAlign=middle;resizable=0;points=[];" vertex="1" connectable="0" parent="LJlpOCn2nI5gCubznE0P-101">
          <mxGeometry x="0.2588" y="-4" relative="1" as="geometry">
            <mxPoint as="offset" />
          </mxGeometry>
        </mxCell>
        <mxCell id="LJlpOCn2nI5gCubznE0P-102" value="" style="endArrow=none;html=1;entryX=0.5;entryY=1;entryDx=0;entryDy=0;entryPerimeter=0;" edge="1" parent="1" target="LJlpOCn2nI5gCubznE0P-59">
          <mxGeometry width="50" height="50" relative="1" as="geometry">
            <mxPoint x="526" y="1590" as="sourcePoint" />
            <mxPoint x="561" y="1600" as="targetPoint" />
          </mxGeometry>
        </mxCell>
        <mxCell id="LJlpOCn2nI5gCubznE0P-104" value="" style="endArrow=none;html=1;rounded=0;" edge="1" parent="1">
          <mxGeometry width="50" height="50" relative="1" as="geometry">
            <mxPoint x="390" y="1680" as="sourcePoint" />
            <mxPoint x="660" y="1680" as="targetPoint" />
          </mxGeometry>
        </mxCell>
        <mxCell id="LJlpOCn2nI5gCubznE0P-105" value="" style="endArrow=none;html=1;exitX=0.5;exitY=0;exitDx=0;exitDy=0;exitPerimeter=0;rounded=0;" edge="1" parent="1" source="LJlpOCn2nI5gCubznE0P-79">
          <mxGeometry width="50" height="50" relative="1" as="geometry">
            <mxPoint x="436.25" y="1697" as="sourcePoint" />
            <mxPoint x="437" y="1680" as="targetPoint" />
          </mxGeometry>
        </mxCell>
        <mxCell id="LJlpOCn2nI5gCubznE0P-114" value="10" style="edgeLabel;html=1;align=center;verticalAlign=middle;resizable=0;points=[];" vertex="1" connectable="0" parent="LJlpOCn2nI5gCubznE0P-105">
          <mxGeometry x="0.1375" y="1" relative="1" as="geometry">
            <mxPoint x="-1" as="offset" />
          </mxGeometry>
        </mxCell>
        <mxCell id="LJlpOCn2nI5gCubznE0P-108" value="" style="endArrow=none;html=1;exitX=0.5;exitY=0;exitDx=0;exitDy=0;exitPerimeter=0;" edge="1" parent="1">
          <mxGeometry width="50" height="50" relative="1" as="geometry">
            <mxPoint x="549.89" y="1700" as="sourcePoint" />
            <mxPoint x="549.89" y="1680" as="targetPoint" />
          </mxGeometry>
        </mxCell>
        <mxCell id="LJlpOCn2nI5gCubznE0P-116" value="10" style="edgeLabel;html=1;align=center;verticalAlign=middle;resizable=0;points=[];" vertex="1" connectable="0" parent="LJlpOCn2nI5gCubznE0P-108">
          <mxGeometry x="0.0235" y="-4" relative="1" as="geometry">
            <mxPoint as="offset" />
          </mxGeometry>
        </mxCell>
        <mxCell id="LJlpOCn2nI5gCubznE0P-109" value="" style="endArrow=none;html=1;exitX=0.5;exitY=0;exitDx=0;exitDy=0;exitPerimeter=0;" edge="1" parent="1">
          <mxGeometry width="50" height="50" relative="1" as="geometry">
            <mxPoint x="490.9999999999999" y="1700" as="sourcePoint" />
            <mxPoint x="490.9999999999999" y="1680" as="targetPoint" />
          </mxGeometry>
        </mxCell>
        <mxCell id="LJlpOCn2nI5gCubznE0P-115" value="10" style="edgeLabel;html=1;align=center;verticalAlign=middle;resizable=0;points=[];" vertex="1" connectable="0" parent="LJlpOCn2nI5gCubznE0P-109">
          <mxGeometry x="-0.0941" y="-1" relative="1" as="geometry">
            <mxPoint as="offset" />
          </mxGeometry>
        </mxCell>
      </root>
    </mxGraphModel>
  </diagram>
</mxfile>
